<svg width="187" height="180" viewBox="0 0 187 180" fill="none" xmlns="http://www.w3.org/2000/svg">
<path fill-rule="evenodd" clip-rule="evenodd" d="M80.3041 55.7961C80.3045 55.7973 80.3049 55.7986 80.3054 55.7999L87.2633 75.6936H115.208C116.671 75.6936 117.603 75.2178 118.165 74.657C118.744 74.0793 119.045 73.2979 119.045 72.4942C119.045 71.6905 118.744 70.9092 118.165 70.3314C117.603 69.7706 116.671 69.2948 115.208 69.2948H92.9428C92.9427 69.2948 92.9423 69.2948 92.9423 67.474V69.2948C92.178 69.2948 91.4951 68.8175 91.2324 68.0999L86.1862 54.3137C86.1644 54.2543 86.1458 54.1937 86.1303 54.1323C85.7506 52.6239 85.0224 51.7874 84.3151 51.3605C83.5892 50.9224 82.7548 50.8337 82.0091 51.0402C81.2661 51.2459 80.6354 51.7362 80.2817 52.4527C79.9354 53.1543 79.7716 54.2484 80.3041 55.7961ZM94.2148 65.6532H115.208C117.517 65.6532 119.414 66.4324 120.738 67.7542C122.045 69.0591 122.687 70.7878 122.687 72.4942C122.687 74.2007 122.045 75.9294 120.738 77.2343C119.414 78.556 117.517 79.3353 115.208 79.3353H85.9714C85.9713 79.3353 85.9712 79.3353 85.9712 77.5145L85.9714 79.3353C85.1975 79.3353 84.508 78.8461 84.2525 78.1156L76.8652 56.9942L76.8624 56.9863C76.0699 54.6863 76.1663 52.5626 77.0162 50.8408C77.8591 49.1334 79.3612 47.9947 81.0373 47.5306C82.7106 47.0673 84.5815 47.268 86.1966 48.2426C87.8076 49.2148 89.0442 50.881 89.637 53.1471L94.2148 65.6532Z" fill="#2E3192"/>
<path fill-rule="evenodd" clip-rule="evenodd" d="M83.6823 36.3512C91.5436 36.3512 98.8731 42.8995 98.8731 54.8324V67.474C98.8731 68.4796 98.0579 69.2948 97.0523 69.2948C96.0467 69.2948 95.2315 68.4796 95.2315 67.474V54.8324C95.2315 44.5515 89.191 39.9928 83.6823 39.9928C78.1736 39.9928 72.1332 44.5515 72.1332 54.8324V92.9654C72.1332 93.0182 72.1309 93.0711 72.1263 93.1238L67.8772 141.763H97.6365L95.2337 93.0551C95.2322 93.0252 95.2315 92.9953 95.2315 92.9654V77.5145C95.2315 76.5089 96.0467 75.6937 97.0523 75.6937C98.0579 75.6937 98.8731 76.5089 98.8731 77.5145V92.9204L101.368 143.494C101.393 143.992 101.212 144.478 100.868 144.839C100.525 145.2 100.048 145.405 99.5494 145.405H65.8904C65.3799 145.405 64.8929 145.19 64.548 144.814C64.2031 144.438 64.0321 143.934 64.0765 143.425L68.4916 92.886V54.8324C68.4916 42.8995 75.8211 36.3512 83.6823 36.3512Z" fill="#2E3192"/>
<path fill-rule="evenodd" clip-rule="evenodd" d="M94.8154 141.815C95.821 141.815 96.6362 142.63 96.6362 143.636H94.8154H92.9946C92.9946 142.63 93.8098 141.815 94.8154 141.815ZM92.9946 156.954V143.636C92.9946 143.636 92.9946 143.636 94.8154 143.636C96.6362 143.636 96.6362 143.636 96.6362 143.636V157.147C96.6356 157.147 96.6351 157.147 96.6346 157.147C96.6066 158.829 96.2114 160.285 95.4522 161.452C94.6552 162.677 93.5241 163.476 92.2609 163.869C89.7965 164.635 86.9985 163.837 84.9662 162.154C84.1917 161.512 84.0837 160.365 84.7251 159.59C85.3665 158.816 86.5143 158.708 87.2888 159.349C88.586 160.423 90.132 160.717 91.1791 160.391C91.6717 160.238 92.0882 159.945 92.4 159.466C92.7206 158.973 92.9946 158.181 92.9946 156.954Z" fill="#2E3192"/>
<path fill-rule="evenodd" clip-rule="evenodd" d="M74.8384 141.815C75.844 141.815 76.6592 142.63 76.6592 143.636H74.8384H73.0176C73.0176 142.63 73.8328 141.815 74.8384 141.815ZM88.1043 143.636C89.9251 143.636 89.9251 143.636 89.9251 143.636V154.353C89.9251 160.859 86.0218 164.765 81.4606 164.738C76.9226 164.711 73.0176 160.789 73.0176 154.353V143.636C73.0176 143.636 73.0176 143.636 74.8384 143.636C76.6592 143.636 76.6592 143.636 76.6592 143.636V154.353C76.6592 159.257 79.3871 161.084 81.482 161.096C83.5539 161.108 86.2835 159.343 86.2835 154.353V143.636C86.2835 143.636 86.2835 143.636 88.1043 143.636ZM88.1043 143.636L89.9251 143.636C89.9251 142.63 89.1099 141.815 88.1043 141.815C87.0987 141.815 86.2835 142.631 86.2835 143.636L88.1043 143.636Z" fill="#2E3192"/>
<path fill-rule="evenodd" clip-rule="evenodd" d="M99.4972 24.2428C94.3543 24.2428 90.1851 28.4119 90.1851 33.5549C90.1851 38.6978 94.3543 42.867 99.4972 42.867C104.64 42.867 108.809 38.6978 108.809 33.5549C108.809 28.4119 104.64 24.2428 99.4972 24.2428ZM86.5435 33.5549C86.5435 26.4007 92.3431 20.6011 99.4972 20.6011C106.651 20.6011 112.451 26.4007 112.451 33.5549C112.451 40.7091 106.651 46.5086 99.4972 46.5086C92.3431 46.5086 86.5435 40.7091 86.5435 33.5549Z" fill="#2E3192"/>
<path fill-rule="evenodd" clip-rule="evenodd" d="M79.9766 26.1719C79.6452 28.2138 81.0319 30.1379 83.0739 30.4693C85.1158 30.8007 87.0399 29.414 87.3713 27.372C87.7027 25.33 86.316 23.406 84.274 23.0746C82.232 22.7432 80.308 24.1299 79.9766 26.1719ZM82.4905 34.0639C78.4632 33.4103 75.7283 29.6157 76.3819 25.5885C77.0355 21.5612 80.8301 18.8263 84.8574 19.4799C88.8846 20.1335 91.6195 23.9281 90.9659 27.9554C90.3123 31.9826 86.5177 34.7175 82.4905 34.0639Z" fill="#2E3192"/>
<path fill-rule="evenodd" clip-rule="evenodd" d="M115.312 81.7804C113.249 81.7804 111.567 83.4623 111.567 85.526V96.763C111.567 97.7686 110.751 98.5838 109.746 98.5838C108.74 98.5838 107.925 97.7686 107.925 96.763V85.526C107.925 81.451 111.237 78.1387 115.312 78.1387C119.387 78.1387 122.7 81.4511 122.7 85.526V160.855C122.7 161.861 121.884 162.676 120.879 162.676C119.873 162.676 119.058 161.861 119.058 160.855V85.526C119.058 83.4623 117.376 81.7804 115.312 81.7804Z" fill="#2E3192"/>
</svg>
