<svg width="80" height="80" viewBox="0 0 80 80" fill="none" xmlns="http://www.w3.org/2000/svg">
<path d="M43.3502 15.1854L49.3309 26.6844C49.7581 27.962 51.0396 28.8138 52.3212 28.8138L65.1368 30.5174C68.1271 30.9433 69.4087 34.7762 67.2728 36.9057L57.8746 45.8493C57.0203 46.7011 56.5931 47.9788 56.5931 49.2564L58.729 62.0331C59.1562 65.0143 56.1659 67.5696 53.1756 66.2919L41.6415 60.3295C40.3599 59.9036 39.0784 59.9036 38.224 60.3295L26.6899 66.2919C23.6996 67.5696 20.7093 65.4402 21.1365 62.0331L23.2724 49.2564C23.6996 47.9788 23.2724 46.7011 21.9908 45.8493L13.0199 37.3316C10.4568 35.2021 11.7383 31.3691 15.1558 30.9433L27.9715 29.2397C29.253 29.2397 30.1074 28.3879 30.9618 27.1103L36.9424 15.6113C38.224 12.2042 42.0687 12.2042 43.3502 15.1854Z" fill="#8CC9F1"/>
</svg>
