<svg width="187" height="180" viewBox="0 0 187 180" fill="none" xmlns="http://www.w3.org/2000/svg">
<path fill-rule="evenodd" clip-rule="evenodd" d="M93.9599 68.3584C74.8335 68.3584 67.22 81.4814 67.22 87.659C67.22 93.2365 67.4162 97.6476 67.8692 100.632C68.0633 101.911 68.2908 102.828 68.5223 103.433C68.7292 103.057 68.9561 102.537 69.1957 101.857C69.837 100.039 70.4013 97.5878 71.0031 94.9739L71.0446 94.7937C71.6449 92.1872 72.2865 89.4228 73.0657 87.3115C73.4528 86.2625 73.9202 85.2414 74.5161 84.4521C75.0985 83.6807 76.0489 82.8208 77.4165 82.8208C78.509 82.8208 79.6273 83.0618 80.716 83.3549C81.2959 83.5109 81.9727 83.7132 82.6694 83.9215C83.2105 84.0832 83.7637 84.2486 84.2927 84.3986C86.8632 85.1276 89.9729 85.8373 93.9528 85.8382C100.62 85.7865 104.197 85.4137 106.498 85.0653C107.138 84.9685 107.72 84.8641 108.271 84.7652C109.571 84.532 110.699 84.3295 112.012 84.3295C113.465 84.3295 114.264 85.4978 114.603 86.091C115.019 86.821 115.346 87.7566 115.62 88.7119C116.091 90.3518 116.514 92.4445 116.932 94.51C117.005 94.8725 117.078 95.2341 117.151 95.5923C117.656 98.0636 118.166 100.388 118.774 102.085C118.994 102.7 119.205 103.166 119.395 103.497C119.635 102.898 119.871 101.963 120.07 100.636C120.516 97.6511 120.7 93.2405 120.7 87.659C120.7 81.4814 113.086 68.3584 93.9599 68.3584ZM119.08 104.085C119.08 104.084 119.088 104.075 119.104 104.061C119.089 104.08 119.081 104.087 119.08 104.085ZM119.764 104.003C119.772 104.008 119.775 104.011 119.775 104.011C119.775 104.012 119.772 104.009 119.764 104.003ZM68.1007 104.025C68.1007 104.025 68.1055 104.021 68.1153 104.014C68.1056 104.023 68.1007 104.026 68.1007 104.025ZM68.8411 104.07C68.8578 104.084 68.8656 104.094 68.8654 104.096C68.8651 104.097 68.8568 104.09 68.8411 104.07ZM63.5784 87.659C63.5784 79.2701 73.0285 64.7168 93.9599 64.7168C114.891 64.7168 124.341 79.2701 124.341 87.659C124.341 93.2624 124.161 97.9038 123.671 101.175C123.429 102.792 123.092 104.218 122.586 105.287C122.114 106.282 121.177 107.584 119.503 107.584C118.173 107.584 117.254 106.754 116.698 106.015C116.131 105.262 115.697 104.295 115.346 103.312C114.636 101.332 114.08 98.7529 113.583 96.321C113.506 95.9434 113.431 95.5692 113.356 95.2C112.935 93.122 112.547 91.2035 112.12 89.7177C111.887 88.9062 111.672 88.3367 111.488 87.9837C110.761 88.0198 110.148 88.131 109.266 88.291C108.68 88.3971 107.976 88.5247 107.043 88.6659C104.533 89.0458 100.777 89.4272 93.9739 89.4797L93.9599 89.4798C89.5154 89.4798 86.0464 88.6812 83.299 87.902C82.6327 87.713 82.0596 87.541 81.5308 87.3822C80.9092 87.1955 80.3487 87.0272 79.7696 86.8713C78.8445 86.6224 78.1459 86.4872 77.576 86.4655C77.5398 86.5016 77.4886 86.5588 77.4225 86.6463C77.1464 87.012 76.8257 87.6411 76.4821 88.5723C75.7998 90.4212 75.2091 92.9371 74.5933 95.611C74.5699 95.7126 74.5465 95.8144 74.523 95.9165C73.9458 98.4247 73.3415 101.051 72.63 103.068C72.2623 104.111 71.8213 105.126 71.2612 105.912C70.7267 106.662 69.8022 107.584 68.4165 107.584C66.7405 107.584 65.814 106.26 65.354 105.283C64.8527 104.218 64.5142 102.796 64.2688 101.179C63.7723 97.9074 63.5784 93.2665 63.5784 87.659ZM77.641 86.4105C77.6411 86.4109 77.6367 86.4142 77.628 86.419C77.6367 86.4124 77.641 86.41 77.641 86.4105ZM111.307 87.7003C111.308 87.6983 111.319 87.7093 111.341 87.7393C111.318 87.7173 111.307 87.7023 111.307 87.7003Z" fill="#2E3192"/>
<path fill-rule="evenodd" clip-rule="evenodd" d="M66.2506 106.931C66.0469 107.381 65.8153 108.363 65.8153 110.289C65.8153 114.102 66.7111 117.156 67.8357 118.79C68.3981 119.608 68.8806 119.88 69.1519 119.944C69.3291 119.985 69.6826 120.008 70.2868 119.479C70.8245 119.009 71.5876 118.896 72.2382 119.192C72.8888 119.487 73.3066 120.135 73.3066 120.85C73.3066 126.902 74.7298 130.549 76.3484 133.075C77.1734 134.362 78.0779 135.404 78.9725 136.379C79.1203 136.54 79.2716 136.703 79.4246 136.868C80.1225 137.619 80.8531 138.406 81.4308 139.204C82.2219 140.057 82.9635 140.892 83.6019 141.611C84.0239 142.086 84.4008 142.51 84.7171 142.855C85.614 143.834 86.2847 144.476 86.9751 144.939C88.2587 145.8 89.8983 146.237 94.0118 146.237C98.1253 146.237 99.765 145.8 101.049 144.939C101.739 144.476 102.41 143.834 103.307 142.855C103.623 142.51 104 142.086 104.422 141.611C105.06 140.892 105.802 140.057 106.593 139.204C107.168 138.41 107.895 137.624 108.59 136.872C108.745 136.704 108.899 136.538 109.049 136.374C109.943 135.396 110.848 134.349 111.674 133.057C113.295 130.522 114.717 126.874 114.717 120.85C114.717 120.135 115.135 119.487 115.785 119.192C116.436 118.896 117.199 119.009 117.737 119.479C118.341 120.008 118.695 119.985 118.872 119.944C119.143 119.88 119.626 119.608 120.188 118.79C121.313 117.156 122.208 114.102 122.208 110.289C122.208 108.363 121.977 107.381 121.773 106.931C121.755 106.892 121.739 106.86 121.726 106.834C121.637 106.857 121.494 106.904 121.282 106.999C121.126 107.068 121.063 107.099 120.991 107.135C120.924 107.168 120.848 107.205 120.679 107.283C120.573 107.331 120.427 107.395 120.27 107.449C120.138 107.494 119.852 107.584 119.503 107.584C118.498 107.584 117.682 106.769 117.682 105.763C117.682 104.877 118.315 104.139 119.154 103.976C119.157 103.974 119.161 103.973 119.165 103.971C119.165 103.971 119.174 103.967 119.188 103.96C119.286 103.913 119.658 103.736 119.798 103.673C120.291 103.453 121.229 103.069 122.275 103.194C123.537 103.345 124.515 104.157 125.09 105.429C125.613 106.584 125.85 108.183 125.85 110.289C125.85 114.54 124.873 118.405 123.188 120.854C122.346 122.079 121.19 123.14 119.705 123.489C119.217 123.604 118.735 123.632 118.263 123.584C117.891 128.741 116.473 132.311 114.743 135.018C113.747 136.575 112.676 137.804 111.737 138.831C111.548 139.038 111.369 139.232 111.198 139.416C110.483 140.191 109.928 140.793 109.494 141.408C109.446 141.475 109.395 141.539 109.339 141.599C108.496 142.505 107.843 143.242 107.24 143.922C106.815 144.401 106.415 144.853 105.991 145.316C105.051 146.341 104.142 147.25 103.076 147.964C100.848 149.458 98.2741 149.879 94.0118 149.879C89.7496 149.879 87.1754 149.458 84.9474 147.964C83.882 147.25 82.9725 146.341 82.0324 145.316C81.6082 144.853 81.2082 144.401 80.7834 143.922C80.1805 143.242 79.5276 142.505 78.6846 141.599C78.6288 141.539 78.5772 141.475 78.5301 141.408C78.0951 140.792 77.5382 140.191 76.8196 139.415C76.6519 139.234 76.4754 139.044 76.2896 138.841C75.3503 137.818 74.2779 136.593 73.2822 135.039C71.5489 132.334 70.1304 128.762 69.7597 123.584C69.2886 123.632 68.8063 123.603 68.3182 123.489C66.8338 123.14 65.6776 122.079 64.8354 120.854C63.1507 118.405 62.1737 114.54 62.1737 110.289C62.1737 108.183 62.4103 106.584 62.9333 105.429C63.5092 104.157 64.4867 103.345 65.7488 103.194C66.7948 103.069 67.7322 103.453 68.2261 103.673C68.3651 103.735 68.7375 103.913 68.8354 103.96C68.8499 103.966 68.8584 103.971 68.8592 103.971C68.8628 103.973 68.8663 103.974 68.8697 103.976C69.7083 104.139 70.3413 104.877 70.3413 105.763C70.3413 106.769 69.5261 107.584 68.5205 107.584C68.1715 107.584 67.8862 107.494 67.7541 107.449C67.5967 107.395 67.4511 107.331 67.3448 107.283C67.1761 107.205 67.1 107.168 67.0324 107.135C66.9602 107.099 66.8976 107.068 66.7422 106.999C66.5292 106.904 66.3863 106.857 66.2978 106.834C66.2842 106.86 66.2684 106.892 66.2506 106.931Z" fill="#2E3192"/>
<path fill-rule="evenodd" clip-rule="evenodd" d="M108.534 137.862C109.536 137.895 110.323 138.732 110.294 139.733L110.294 139.751C110.294 139.771 110.294 139.808 110.295 139.86C110.297 139.964 110.303 140.128 110.32 140.34C110.354 140.766 110.432 141.378 110.607 142.09C110.958 143.523 111.681 145.286 113.153 146.78C113.859 147.496 113.85 148.649 113.134 149.355C112.418 150.061 111.265 150.052 110.559 149.336C108.493 147.24 107.525 144.815 107.07 142.957C106.841 142.024 106.737 141.216 106.69 140.632C106.667 140.34 106.657 140.101 106.654 139.93C106.652 139.844 106.652 139.774 106.653 139.723C106.653 139.697 106.653 139.675 106.654 139.659L106.654 139.637L106.654 139.629L106.654 139.626L106.654 139.624C106.654 139.623 106.654 139.623 108.474 139.682L106.654 139.623C106.687 138.618 107.529 137.829 108.534 137.862Z" fill="#2E3192"/>
<path fill-rule="evenodd" clip-rule="evenodd" d="M79.386 137.862C80.3911 137.829 81.2324 138.618 81.2652 139.623L79.4454 139.682C81.2652 139.623 81.2652 139.623 81.2652 139.624L81.2653 139.626L81.2654 139.629L81.2656 139.637L81.2661 139.659C81.2665 139.675 81.2668 139.697 81.267 139.723C81.2674 139.774 81.2673 139.844 81.2656 139.93C81.2623 140.101 81.253 140.34 81.2294 140.632C81.1824 141.216 81.0783 142.024 80.8497 142.957C80.3944 144.815 79.4263 147.24 77.3607 149.336C76.6549 150.052 75.502 150.061 74.7858 149.355C74.0695 148.649 74.0611 147.496 74.767 146.78C76.239 145.286 76.9617 143.523 77.3127 142.09C77.4872 141.378 77.5652 140.766 77.5995 140.34C77.6166 140.128 77.6227 139.964 77.6247 139.86C77.6257 139.808 77.6256 139.771 77.6255 139.751L77.6253 139.733C77.5969 138.732 78.3836 137.895 79.386 137.862Z" fill="#2E3192"/>
<path fill-rule="evenodd" clip-rule="evenodd" d="M94.5377 30.4236C95.4913 30.7428 96.0056 31.7746 95.6865 32.7282L92.1713 43.2312H98.2257C98.8106 43.2312 99.3599 43.5122 99.7021 43.9865C100.044 44.4608 100.138 45.0706 99.9537 45.6257L95.6879 58.4754C95.371 59.4298 94.3405 59.9467 93.3861 59.6298C92.4317 59.313 91.9149 58.2825 92.2317 57.3281L95.7027 46.8729H89.6419C89.0562 46.8729 88.5063 46.5911 88.1641 46.1158C87.8219 45.6405 87.7293 45.0296 87.9152 44.4742L92.2331 31.5724C92.5523 30.6188 93.5841 30.1045 94.5377 30.4236Z" fill="#2E3192"/>
<path fill-rule="evenodd" clip-rule="evenodd" d="M133.848 39.4466C134.56 40.1577 134.56 41.3105 133.848 42.0216L124.913 50.9566L131.246 54.1422C131.8 54.4208 132.174 54.962 132.239 55.5786C132.304 56.1952 132.05 56.8024 131.566 57.1899L120.85 65.7738C120.065 66.4024 118.919 66.2758 118.29 65.4909C117.661 64.706 117.788 63.5601 118.573 62.9315L127.076 56.1208L121.026 53.0775C120.504 52.8148 120.139 52.3174 120.047 51.7404C119.954 51.1633 120.143 50.5767 120.557 50.1634L131.273 39.4466C131.985 38.7355 133.137 38.7355 133.848 39.4466Z" fill="#2E3192"/>
<path fill-rule="evenodd" clip-rule="evenodd" d="M54.8096 38.9825C55.777 38.708 56.7838 39.2697 57.0583 40.2371L60.7242 53.1573L67.3941 49.8223C67.8669 49.5859 68.4191 49.5667 68.9072 49.7695C69.3954 49.9724 69.7712 50.3774 69.9372 50.8793L74.203 63.781C74.5187 64.7358 74.0006 65.7657 73.0459 66.0814C72.0911 66.3971 71.0612 65.879 70.7455 64.9242L67.1403 54.0207L60.3869 57.3974C59.9019 57.6399 59.334 57.6536 58.8379 57.4348C58.3417 57.216 57.9689 56.7875 57.8209 56.2658L53.555 41.2312C53.2805 40.2637 53.8422 39.257 54.8096 38.9825Z" fill="#2E3192"/>
</svg>
