<svg width="186" height="180" viewBox="0 0 186 180" fill="none" xmlns="http://www.w3.org/2000/svg">
<path fill-rule="evenodd" clip-rule="evenodd" d="M60.3467 42.1895C68.9989 41.8782 77.6326 46.6597 81.1461 56.1235C82.7575 60.4561 84.6737 66.7595 86.5418 72.9995C86.7674 73.753 86.9923 74.5056 87.216 75.2541C88.8564 80.7438 90.4306 86.012 91.722 89.7729L91.7258 89.7843C93.1233 93.9433 91.1116 97.3836 88.0627 98.5375C86.5793 99.0989 84.8674 99.1031 83.3154 98.3666C81.7434 97.6205 80.4957 96.1931 79.7998 94.1862L79.798 94.181C78.303 89.8273 76.3825 83.6074 74.8411 78.4953C74.0691 75.9352 73.3901 73.6456 72.904 71.9961C72.661 71.1712 72.4661 70.5062 72.332 70.0473C72.2649 69.8178 72.213 69.6397 72.1778 69.519L72.1243 69.3351L72.1241 69.3345C72.1241 69.3344 72.1241 69.3343 73.8727 68.8266C75.6213 68.319 75.6213 68.319 75.6213 68.3191L75.6215 68.3196L75.6741 68.5007C75.709 68.6204 75.7606 68.7973 75.8273 69.0256C75.9608 69.4823 76.1549 70.1447 76.3971 70.9668C76.8816 72.6109 77.5584 74.8929 78.3277 77.444C79.8683 82.5535 81.771 88.7136 83.2413 92.9957C83.6639 94.2125 84.308 94.8067 84.8767 95.0766C85.4657 95.3561 86.1436 95.3701 86.7737 95.1316C87.9507 94.6862 89.0596 93.2902 88.2757 90.9497C86.9587 87.1135 85.3612 81.767 83.7267 76.2966C83.5027 75.5469 83.278 74.7948 83.0532 74.0439C81.1758 67.7728 79.2945 61.5912 77.7326 57.392L77.7322 57.391C74.8045 49.5051 67.661 45.547 60.418 45.831C60.3705 45.8329 60.3229 45.8329 60.2753 45.831C53.0188 45.5464 45.8396 49.4635 42.9657 57.3787L42.9608 57.392C41.3989 61.5912 39.5175 67.7728 37.6401 74.0439C37.4153 74.7947 37.1906 75.5468 36.9666 76.2965C35.3313 81.7697 33.733 87.1189 32.4156 90.9555L32.4138 90.9607C31.616 93.2613 32.7085 94.6589 33.903 95.1132C34.5402 95.3556 35.2248 95.3434 35.8168 95.0657C36.3869 94.7984 37.0309 94.2085 37.4521 92.9955C38.9224 88.7134 40.8251 82.5534 42.3657 77.444C43.1349 74.8929 43.8117 72.6109 44.2962 70.9668C44.5384 70.1447 44.7325 69.4823 44.866 69.0256C44.9327 68.7973 44.9843 68.6204 45.0192 68.5007L45.0719 68.3196L45.072 68.3191C45.072 68.319 45.072 68.319 46.8207 68.8266C48.5693 69.3343 48.5692 69.3344 48.5692 69.3345L48.569 69.3351L48.5155 69.519C48.4803 69.6397 48.4284 69.8178 48.3614 70.0473C48.2272 70.5062 48.0324 71.1712 47.7893 71.9961C47.3032 73.6456 46.6242 75.9352 45.8522 78.4953C44.3108 83.6074 42.3903 89.8273 40.8954 94.181L40.8936 94.1862C40.1963 96.1969 38.9419 97.6223 37.3631 98.3628C35.8059 99.0931 34.091 99.0809 32.6083 98.5169C29.5635 97.3588 27.5348 93.9195 28.9722 89.7703C30.2635 86.0096 31.8373 80.7425 33.4774 75.254C33.701 74.5055 33.9259 73.7529 34.1515 72.9995C36.0188 66.7622 37.9341 60.4615 39.5451 56.1291C43.0101 46.5952 51.7095 41.8785 60.3467 42.1895ZM46.8207 68.8266L48.5692 69.3345C48.8496 68.3688 48.294 67.3584 47.3283 67.078C46.3626 66.7976 45.3524 67.3534 45.072 68.3191L46.8207 68.8266ZM73.8727 68.8266L75.6213 68.3191C75.3409 67.3534 74.3307 66.7976 73.365 67.078C72.3993 67.3584 71.8438 68.3688 72.1241 69.3345L73.8727 68.8266Z" fill="#2E3192"/>
<path fill-rule="evenodd" clip-rule="evenodd" d="M46.8726 67.0058C47.8782 67.0058 48.6934 67.821 48.6934 68.8266H46.8726H45.0518C45.0518 67.821 45.867 67.0058 46.8726 67.0058ZM73.7165 68.8266C75.5373 68.8266 75.5373 68.8269 75.5373 68.8275V151.075C75.5373 153.568 74.7986 155.625 73.5022 157.084C72.2066 158.542 70.4421 159.295 68.6442 159.295C64.9313 159.295 61.6948 156.212 61.4421 151.182L60.3147 134.553L59.1506 151.131C59.1648 153.613 58.4057 155.657 57.0828 157.103C55.7533 158.557 53.9509 159.295 52.1399 159.295C50.3294 159.295 48.5254 158.558 47.1856 157.112C45.8382 155.658 45.0518 153.593 45.0518 151.075V68.8275C45.0518 68.8269 45.0518 68.8266 46.8726 68.8266C48.6934 68.8266 48.6934 68.8269 48.6934 68.8275V151.075C48.6934 152.823 49.2271 153.957 49.8565 154.637C50.4936 155.324 51.3232 155.653 52.1399 155.653C52.9561 155.653 53.7743 155.325 54.3957 154.645C55.0099 153.974 55.5299 152.846 55.5085 151.097C55.5079 151.047 55.5094 150.997 55.5129 150.948L58.5302 107.977C58.5972 107.022 59.3918 106.282 60.3487 106.283C61.3057 106.284 62.0985 107.026 62.1632 107.981L65.0765 150.952C65.0773 150.963 65.0779 150.975 65.0785 150.986C65.2488 154.478 67.2373 155.653 68.6442 155.653C69.4085 155.653 70.1801 155.34 70.7802 154.665C71.3793 153.991 71.8957 152.848 71.8957 151.075V68.8275C71.8957 68.8269 71.8957 68.8266 73.7165 68.8266ZM73.7165 68.8266H75.5373C75.5373 67.821 74.7221 67.0058 73.7165 67.0058C72.7109 67.0058 71.8957 67.821 71.8957 68.8266H73.7165Z" fill="#2E3192"/>
<path fill-rule="evenodd" clip-rule="evenodd" d="M60.2947 21.8497C55.6115 21.8497 51.815 25.6462 51.815 30.3295C51.815 35.0127 55.6115 38.8093 60.2947 38.8093C64.978 38.8093 68.7745 35.0127 68.7745 30.3295C68.7745 25.6462 64.978 21.8497 60.2947 21.8497ZM48.1733 30.3295C48.1733 23.635 53.6003 18.2081 60.2947 18.2081C66.9892 18.2081 72.4161 23.635 72.4161 30.3295C72.4161 37.0239 66.9892 42.4509 60.2947 42.4509C53.6003 42.4509 48.1733 37.0239 48.1733 30.3295Z" fill="#2E3192"/>
<path fill-rule="evenodd" clip-rule="evenodd" d="M107.042 67.0736C108.039 67.2055 108.74 68.1206 108.608 69.1175L102.066 118.561H108.624C109.572 118.561 110.362 119.289 110.439 120.234L108.624 120.382C110.439 120.234 110.439 120.234 110.439 120.234L110.468 120.587C110.486 120.817 110.514 121.155 110.549 121.586C110.618 122.448 110.718 123.682 110.837 125.172C111.076 128.152 111.395 132.155 111.714 136.244C112.336 144.222 112.973 152.708 112.994 154.38C113.105 155.752 113.581 156.579 114.077 157.05C114.587 157.534 115.231 157.753 115.877 157.729C117.104 157.682 118.509 156.723 118.509 154.457C118.509 153.451 119.324 152.636 120.329 152.636C121.335 152.636 122.15 153.451 122.15 154.457C122.15 158.641 119.237 161.245 116.016 161.368C114.437 161.428 112.825 160.883 111.57 159.691C110.307 158.492 109.515 156.747 109.357 154.589C109.354 154.545 109.352 154.501 109.352 154.457C109.352 153.171 108.726 144.767 108.083 136.527C107.765 132.441 107.446 128.442 107.207 125.464C107.102 124.152 107.012 123.038 106.945 122.202H99.9883C99.4637 122.202 98.9647 121.976 98.6189 121.582C98.2732 121.187 98.1144 120.663 98.1832 120.143L104.998 68.6398C105.13 67.6429 106.045 66.9416 107.042 67.0736Z" fill="#2E3192"/>
<path fill-rule="evenodd" clip-rule="evenodd" d="M133.617 67.0736C134.613 66.9416 135.529 67.6429 135.66 68.6398L142.475 120.143C142.544 120.663 142.385 121.187 142.04 121.582C141.694 121.976 141.195 122.202 140.67 122.202H133.714C133.646 123.038 133.556 124.152 133.451 125.464C133.212 128.442 132.894 132.441 132.575 136.527C131.933 144.767 131.306 153.171 131.306 154.457C131.306 154.501 131.305 154.545 131.301 154.589C131.144 156.747 130.352 158.492 129.089 159.691C127.833 160.883 126.221 161.428 124.643 161.368C121.422 161.245 118.509 158.641 118.509 154.457C118.509 153.451 119.324 152.636 120.329 152.636C121.335 152.636 122.15 153.451 122.15 154.457C122.15 156.723 123.555 157.682 124.781 157.729C125.427 157.753 126.072 157.534 126.582 157.05C127.077 156.579 127.554 155.752 127.665 154.38C127.685 152.708 128.323 144.222 128.945 136.244C129.263 132.155 129.582 128.152 129.821 125.172C129.941 123.682 130.04 122.448 130.11 121.586C130.145 121.155 130.172 120.817 130.191 120.587L130.22 120.234C130.22 120.234 130.22 120.234 132.035 120.382L130.22 120.234C130.297 119.289 131.086 118.561 132.035 118.561H138.593L132.05 69.1175C131.918 68.1206 132.62 67.2055 133.617 67.0736Z" fill="#2E3192"/>
<path fill-rule="evenodd" clip-rule="evenodd" d="M120.329 117.572C121.335 117.572 122.15 118.387 122.15 119.393V156.069C122.15 157.075 121.335 157.89 120.329 157.89C119.324 157.89 118.509 157.075 118.509 156.069V119.393C118.509 118.387 119.324 117.572 120.329 117.572Z" fill="#2E3192"/>
<path fill-rule="evenodd" clip-rule="evenodd" d="M120.329 42.1895C128.982 41.8782 137.615 46.6597 141.129 56.1235C142.74 60.4561 144.656 66.7595 146.525 72.9995C146.75 73.7529 146.975 74.5054 147.199 75.2538C148.839 80.7436 150.413 86.0119 151.705 89.7729L151.708 89.7843C153.106 93.9433 151.094 97.3836 148.045 98.5375C146.562 99.0989 144.85 99.1031 143.298 98.3666C141.726 97.6205 140.478 96.1931 139.782 94.1862L139.781 94.181C138.286 89.8273 136.365 83.6074 134.824 78.4953C134.052 75.9352 133.373 73.6456 132.887 71.9961C132.644 71.1712 132.449 70.5062 132.315 70.0473C132.248 69.8178 132.196 69.6397 132.16 69.519L132.107 69.3351L132.107 69.3345C132.107 69.3344 132.107 69.3343 133.855 68.8266C135.604 68.319 135.604 68.319 135.604 68.3191L135.657 68.5007C135.692 68.6204 135.743 68.7973 135.81 69.0256C135.943 69.4823 136.138 70.1447 136.38 70.9668C136.864 72.6109 137.541 74.8929 138.31 77.444C139.851 82.5535 141.754 88.7136 143.224 92.9957C143.647 94.2125 144.291 94.8067 144.859 95.0766C145.448 95.3561 146.126 95.3701 146.756 95.1316C147.933 94.6862 149.042 93.2902 148.258 90.9497C146.941 87.1135 145.344 81.7668 143.709 76.2964C143.485 75.5467 143.261 74.7947 143.036 74.0439C141.158 67.7728 139.277 61.5912 137.715 57.392L137.715 57.391C134.787 49.5051 127.644 45.547 120.401 45.831C120.353 45.8329 120.306 45.8329 120.258 45.831C113.001 45.5464 105.822 49.4635 102.948 57.3787L102.943 57.392C101.382 61.5912 99.5002 67.7728 97.6228 74.0439C97.398 74.7947 97.1733 75.5468 96.9493 76.2965C95.314 81.7697 93.7157 87.1189 92.3983 90.9555L92.3965 90.9607C91.5987 93.2613 92.6912 94.6589 93.8856 95.1132C94.5228 95.3556 95.2075 95.3434 95.7995 95.0657C96.3695 94.7984 97.0135 94.2085 97.4348 92.9955C98.905 88.7134 100.808 82.5534 102.348 77.444C103.118 74.8929 103.794 72.6109 104.279 70.9668C104.521 70.1447 104.715 69.4823 104.849 69.0256C104.915 68.7973 104.967 68.6204 105.002 68.5007L105.055 68.3196L105.055 68.3191C105.055 68.319 105.055 68.319 106.803 68.8266C108.552 69.3343 108.552 69.3344 108.552 69.3345L108.552 69.3351L108.498 69.519C108.463 69.6397 108.411 69.8178 108.344 70.0473C108.21 70.5062 108.015 71.1712 107.772 71.9961C107.286 73.6456 106.607 75.9352 105.835 78.4953C104.293 83.6074 102.373 89.8273 100.878 94.181L100.876 94.1862C100.179 96.1969 98.9246 97.6223 97.3458 98.3628C95.7886 99.0931 94.0737 99.0809 92.591 98.5169C89.5462 97.3588 87.5175 93.9195 88.9549 89.7703C90.2461 86.0096 91.82 80.7425 93.46 75.254C93.6837 74.5055 93.9086 73.7529 94.1341 72.9995C96.0015 66.7622 97.9168 60.4615 99.5278 56.1291C102.993 46.5952 111.692 41.8785 120.329 42.1895ZM106.803 68.8266L108.552 69.3345C108.832 68.3688 108.277 67.3584 107.311 67.078C106.345 66.7976 105.335 67.3534 105.055 68.3191L106.803 68.8266ZM133.855 68.8266L135.604 68.3191C135.324 67.3534 134.313 66.7976 133.348 67.078C132.382 67.3584 131.826 68.3688 132.107 69.3345L133.855 68.8266Z" fill="#2E3192"/>
<path fill-rule="evenodd" clip-rule="evenodd" d="M120.329 21.8497C115.646 21.8497 111.85 25.6462 111.85 30.3295C111.85 35.0127 115.646 38.8093 120.329 38.8093C125.013 38.8093 128.809 35.0127 128.809 30.3295C128.809 25.6462 125.013 21.8497 120.329 21.8497ZM108.208 30.3295C108.208 23.635 113.635 18.2081 120.329 18.2081C127.024 18.2081 132.451 23.635 132.451 30.3295C132.451 37.0239 127.024 42.4509 120.329 42.4509C113.635 42.4509 108.208 37.0239 108.208 30.3295Z" fill="#2E3192"/>
</svg>
