<svg width="80" height="80" viewBox="0 0 80 80" fill="none" xmlns="http://www.w3.org/2000/svg">
<path d="M65.1934 18.8767H56.9816C55.8085 18.8767 55.0264 18.0932 55.0264 16.9178V14.1754C55.0264 13.3918 54.6354 13.0001 53.8533 13.0001C53.0712 13.0001 52.6802 13.3918 52.6802 14.1754V16.5261C52.6802 17.7014 51.8981 18.4849 50.725 18.4849H29.6089C28.4358 18.4849 27.6537 17.7014 27.6537 16.5261V14.1754C27.6537 13.3918 26.8716 13.0001 26.4806 13.0001C26.0895 13.0001 25.3074 13.3918 25.3074 14.1754V16.5261C25.3074 17.7014 24.5254 18.4849 23.3523 18.4849H15.1404C13.1852 18.8767 11.6211 20.052 11.6211 22.0109V61.9721C11.6211 63.931 13.1852 65.4981 15.1404 65.4981H65.1934C67.1486 65.4981 68.7127 63.931 68.7127 61.9721V22.0109C68.7127 20.052 67.1486 18.8767 65.1934 18.8767ZM65.1934 63.1475H15.1404C14.3584 63.1475 13.9673 62.7557 13.9673 61.9721V31.0218C13.9673 29.8465 14.7494 29.0629 15.9225 29.0629H64.0203C65.1934 29.0629 65.9755 29.8465 65.9755 31.0218V61.9721C66.3665 62.7557 65.5844 63.1475 65.1934 63.1475Z" fill="#8CC9F1"/>
<path d="M40.5583 34.5471C39.7762 34.5471 38.9941 35.3307 38.9941 36.506C38.9941 37.2896 39.7762 38.0731 40.5583 38.0731C41.3404 38.0731 42.1225 37.2896 42.1225 36.506C42.5135 35.3307 41.7314 34.5471 40.5583 34.5471Z" fill="#8CC9F1"/>
<path d="M32.737 38.074C33.6009 38.074 34.3012 37.3724 34.3012 36.5069C34.3012 35.6414 33.6009 34.9398 32.737 34.9398C31.8731 34.9398 31.1729 35.6414 31.1729 36.5069C31.1729 37.3724 31.8731 38.074 32.737 38.074Z" fill="#8CC9F1"/>
<path d="M48.7699 34.5471C47.5968 34.5471 46.8147 35.3307 46.8147 36.506C46.8147 37.2896 47.5968 38.0731 48.3789 38.0731C49.1609 38.0731 50.3341 37.2896 50.3341 36.506C50.3341 35.3307 49.552 34.5471 48.7699 34.5471Z" fill="#8CC9F1"/>
<path d="M40.5583 43.9503C39.7762 43.9503 38.9941 44.7338 38.9941 45.5174C38.9941 46.3009 39.7762 47.0845 40.5583 47.0845C41.3404 47.0845 42.1225 46.3009 42.1225 45.5174C42.5135 44.7338 41.7314 43.9503 40.5583 43.9503Z" fill="#8CC9F1"/>
<path d="M32.737 47.0845C33.6009 47.0845 34.3012 46.3829 34.3012 45.5174C34.3012 44.6519 33.6009 43.9503 32.737 43.9503C31.8731 43.9503 31.1729 44.6519 31.1729 45.5174C31.1729 46.3829 31.8731 47.0845 32.737 47.0845Z" fill="#8CC9F1"/>
<path d="M24.5256 43.9503C23.7435 43.9503 22.9614 44.7338 22.9614 45.5174C22.9614 46.3009 23.7435 47.0845 24.5256 47.0845C25.3077 47.0845 26.0898 46.3009 26.0898 45.5174C26.4808 44.7338 25.6987 43.9503 24.5256 43.9503Z" fill="#8CC9F1"/>
<path d="M48.7699 43.9503C47.5968 43.9503 46.8147 44.7338 46.8147 45.5174C46.8147 46.3009 47.5968 47.0845 48.3788 47.0845C49.1609 47.0845 49.943 46.3009 49.943 45.5174C50.334 44.7338 49.552 43.9503 48.7699 43.9503Z" fill="#8CC9F1"/>
<path d="M56.5903 38.074C57.4542 38.074 58.1545 37.3724 58.1545 36.5069C58.1545 35.6414 57.4542 34.9398 56.5903 34.9398C55.7264 34.9398 55.0261 35.6414 55.0261 36.5069C55.0261 37.3724 55.7264 38.074 56.5903 38.074Z" fill="#8CC9F1"/>
<path d="M56.5903 41.5983C54.2441 41.5983 52.6799 43.5572 52.6799 45.5161C52.6799 47.8668 54.6351 49.4339 56.5903 49.4339C58.9365 49.4339 60.5007 47.475 60.5007 45.5161C60.5007 43.1654 58.9365 41.5983 56.5903 41.5983ZM56.5903 47.0832C55.8082 47.0832 55.0262 46.2997 55.0262 45.5161C55.0262 44.7325 55.8082 43.949 56.5903 43.949C57.3724 43.949 58.1545 44.7325 58.1545 45.5161C58.1545 46.2997 57.3724 47.0832 56.5903 47.0832Z" fill="#8CC9F1"/>
<path d="M40.5583 52.9614C39.7762 52.9614 38.9941 53.745 38.9941 54.5285C38.9941 55.3121 39.7762 56.0956 40.5583 56.0956C41.3404 56.0956 42.1225 55.3121 42.1225 54.5285C42.5135 53.745 41.7314 52.9614 40.5583 52.9614Z" fill="#8CC9F1"/>
<path d="M32.737 52.9614C31.9549 52.9614 31.1729 53.745 31.1729 54.5285C31.1729 55.3121 31.9549 56.0956 32.737 56.0956C33.5191 56.0956 34.3012 55.3121 34.3012 54.5285C34.3012 53.745 33.5191 52.9614 32.737 52.9614Z" fill="#8CC9F1"/>
<path d="M24.5256 52.9614C23.7435 52.9614 22.9614 53.745 22.9614 54.5285C22.9614 55.3121 23.7435 56.0956 24.5256 56.0956C25.3077 56.0956 26.0898 55.3121 26.0898 54.5285C26.4808 53.745 25.6987 52.9614 24.5256 52.9614Z" fill="#8CC9F1"/>
</svg>
