<svg width="186" height="180" viewBox="0 0 186 180" fill="none" xmlns="http://www.w3.org/2000/svg">
<path fill-rule="evenodd" clip-rule="evenodd" d="M29.5609 50.0984C30.5665 50.0984 31.3817 50.9136 31.3817 51.9192V70.4914C31.3817 72.8411 32.0578 75.0865 33.3595 77.0167L33.3685 77.0302L35.6055 80.4117C35.8026 80.7096 35.9077 81.059 35.9077 81.4163V124.595C35.9077 126.087 37.1214 127.301 38.613 127.301C40.1045 127.301 41.3181 126.087 41.3181 124.595V81.4163C41.3181 81.059 41.4232 80.7096 41.6204 80.4117L43.8574 77.0302L43.8664 77.0167C45.1662 75.0894 45.8442 72.7927 45.8442 70.4914V51.9192C45.8442 50.9136 46.6594 50.0984 47.665 50.0984C48.6706 50.0984 49.4858 50.9136 49.4858 51.9192V70.4914C49.4858 73.4937 48.6047 76.5007 46.8902 79.0459L44.9598 81.964V124.595C44.9598 128.098 42.1157 130.942 38.613 130.942C35.1103 130.942 32.2661 128.098 32.2661 124.595V81.964L30.3357 79.0459C28.6232 76.5037 27.7401 73.5493 27.7401 70.4914V51.9192C27.7401 50.9136 28.5553 50.0984 29.5609 50.0984Z" fill="#2E3192"/>
<path fill-rule="evenodd" clip-rule="evenodd" d="M157.486 50.2503C158.149 50.5399 158.578 51.1951 158.578 51.9191V124.595C158.578 128.098 155.734 130.942 152.231 130.942C148.729 130.942 145.885 128.098 145.885 124.595V93.4766C145.784 93.3522 145.671 93.2085 145.548 93.0463C145.082 92.4333 144.466 91.5498 143.848 90.4486C142.622 88.2628 141.336 85.1214 141.307 81.483L141.307 81.4683C141.307 72.5326 144.902 64.7993 148.413 59.3653C150.176 56.6374 151.937 54.4568 153.262 52.9544C153.925 52.2025 154.48 51.6183 154.874 51.2182C155.071 51.0181 155.228 50.8638 155.337 50.7575C155.392 50.7044 155.435 50.6632 155.466 50.6342L155.502 50.5999L155.513 50.5897L155.517 50.5863L155.518 50.5851C155.519 50.5846 155.519 50.5841 156.757 51.9191L155.519 50.5841C156.05 50.0918 156.822 49.9607 157.486 50.2503ZM154.937 56.6035C153.891 57.8727 152.681 59.4694 151.472 61.3415C148.169 66.4535 144.95 73.4921 144.948 81.4608C144.973 84.2704 145.975 86.7967 147.024 88.6671C147.544 89.5948 148.063 90.3371 148.447 90.8425C148.639 91.0946 148.795 91.286 148.901 91.4102C148.953 91.4722 148.993 91.5173 149.017 91.5447C149.029 91.5584 149.037 91.5676 149.042 91.5723C149.042 91.5725 149.042 91.5731 149.042 91.5733C149.043 91.5736 149.043 91.5738 149.043 91.574C149.043 91.5744 149.044 91.5747 149.044 91.5751L149.045 91.5756C149.354 91.9118 149.526 92.3521 149.526 92.8093V124.595C149.526 126.087 150.74 127.301 152.231 127.301C153.723 127.301 154.937 126.087 154.937 124.595V56.6035Z" fill="#2E3192"/>
<path fill-rule="evenodd" clip-rule="evenodd" d="M38.6649 50.0983C39.6705 50.0983 40.4857 50.9135 40.4857 51.9191V70.0752C40.4857 71.0808 39.6705 71.896 38.6649 71.896C37.6593 71.896 36.8441 71.0808 36.8441 70.0752V51.9191C36.8441 50.9135 37.6593 50.0983 38.6649 50.0983Z" fill="#2E3192"/>
<path fill-rule="evenodd" clip-rule="evenodd" d="M27.7401 70.4914C27.7401 69.4858 28.5553 68.6706 29.5609 68.6706H47.769C48.7746 68.6706 49.5898 69.4858 49.5898 70.4914C49.5898 71.497 48.7746 72.3122 47.769 72.3122H29.5609C28.5553 72.3122 27.7401 71.497 27.7401 70.4914Z" fill="#2E3192"/>
<path fill-rule="evenodd" clip-rule="evenodd" d="M93.1852 53.7399C72.872 53.7399 56.4048 70.207 56.4048 90.5203C56.4048 110.833 72.872 127.301 93.1852 127.301C113.498 127.301 129.966 110.833 129.966 90.5203C129.966 70.207 113.498 53.7399 93.1852 53.7399ZM52.7632 90.5203C52.7632 68.1958 70.8608 50.0983 93.1852 50.0983C115.51 50.0983 133.607 68.1958 133.607 90.5203C133.607 112.845 115.51 130.942 93.1852 130.942C70.8608 130.942 52.7632 112.845 52.7632 90.5203Z" fill="#2E3192"/>
<path fill-rule="evenodd" clip-rule="evenodd" d="M93.1853 62.792C77.8713 62.792 65.4569 75.2064 65.4569 90.5203C65.4569 105.834 77.8713 118.249 93.1853 118.249C108.499 118.249 120.914 105.834 120.914 90.5203C120.914 75.2064 108.499 62.792 93.1853 62.792ZM61.8153 90.5203C61.8153 73.1952 75.8601 59.1504 93.1853 59.1504C110.51 59.1504 124.555 73.1952 124.555 90.5203C124.555 107.845 110.51 121.89 93.1853 121.89C75.8601 121.89 61.8153 107.845 61.8153 90.5203Z" fill="#2E3192"/>
</svg>
