<svg width="187" height="180" viewBox="0 0 187 180" fill="none" xmlns="http://www.w3.org/2000/svg">
<path fill-rule="evenodd" clip-rule="evenodd" d="M108.747 81.9656C104.232 81.2432 99.3228 82.7979 95.057 87.6629C95.0307 87.6928 95.0035 87.7218 94.9754 87.7499C94.6048 88.1206 94.1847 88.26 93.9215 88.3169C93.6669 88.372 93.4419 88.3743 93.3368 88.3743C93.2773 88.3743 93.2203 88.3729 93.1874 88.3722C93.1706 88.3719 93.1578 88.3716 93.1477 88.3714C92.6127 88.4426 92.0709 88.2727 91.6716 87.9035C87.389 83.9446 83.2743 82.0219 79.5607 81.83C75.9066 81.6411 72.3411 83.1124 69.0473 86.5732C68.1256 87.5423 67.3023 88.6388 66.4533 89.8285C66.2679 90.0884 66.0797 90.3551 65.8886 90.6259C65.2275 91.5625 64.5317 92.5483 63.795 93.4746L63.7857 93.4861C63.0791 94.3597 62.3681 95.2822 61.6419 96.2242C59.5675 98.9155 57.3698 101.767 54.8008 104.095L54.7922 104.103C51.1269 107.382 45.972 107.343 42.1987 104.329C41.1479 103.503 40.4022 102.547 40.0086 101.454C39.613 100.355 39.6274 99.2694 39.8487 98.2782C39.9553 97.8006 40.1145 97.3299 40.3078 96.8718C38.8435 98.0828 37.9421 99.5182 37.5454 101.004C36.8233 103.709 37.6372 107.093 40.71 110.403L40.712 110.405C47.2699 117.489 55.8679 118.699 65.2334 117.636C76.3886 116.352 85.0015 110.505 91.5671 101.032C91.8746 100.589 92.363 100.304 92.9006 100.256C93.4382 100.208 93.9695 100.4 94.3511 100.782C94.5984 101.029 94.826 101.234 95.0624 101.445C95.0825 101.463 95.103 101.481 95.1236 101.5C95.3355 101.689 95.5771 101.904 95.8078 102.134C95.8795 102.206 95.945 102.284 96.0038 102.366C105.437 115.622 121.572 121.102 136.924 116.102C142.672 114.201 146.898 110.856 148.705 105.071C149.777 101.539 148.416 98.0532 145.413 96.1896C146.43 98.6711 146.633 101.191 145.421 103.189C144.035 105.476 141.305 106.278 138.222 106.017L138.214 106.016C134.87 105.717 131.154 103.969 128.731 101.607C125.745 98.7216 123.494 95.0447 121.433 91.6771C121.274 91.4179 121.117 91.1605 120.96 90.9055C117.798 85.8248 113.326 82.6983 108.747 81.9656ZM45.3807 95.4324C44.3839 96.8611 43.635 98.0314 43.4028 99.0715C43.2989 99.537 43.3199 99.9012 43.4348 100.22C43.5508 100.542 43.8171 100.97 44.4535 101.469L44.467 101.48C46.9344 103.454 50.097 103.414 52.3599 101.392C54.6668 99.3008 56.5662 96.8372 58.5749 94.2319C59.341 93.2383 60.123 92.224 60.9495 91.2019C61.6131 90.3672 62.2258 89.4994 62.8738 88.5815C63.0746 88.2971 63.2788 88.0079 63.4889 87.7134C64.3567 86.4973 65.302 85.2268 66.4091 84.063L66.4094 84.0627C70.2948 79.9802 74.845 77.9398 79.7486 78.1932C84.2529 78.4259 88.7928 80.5805 93.1583 84.3489C97.9898 79.339 103.758 77.4795 109.322 78.3697C115.146 79.3015 120.454 83.1966 124.055 88.9863L124.06 88.995C124.202 89.2254 124.343 89.4552 124.483 89.6844C126.605 93.1467 128.625 96.4419 131.265 98.9907L131.272 98.9973C133.114 100.795 136.053 102.166 138.534 102.388C140.962 102.594 141.951 101.888 142.307 101.301C142.71 100.636 142.866 99.2437 141.78 96.9776L141.776 96.9702C141.451 96.2826 141.078 95.6085 140.639 94.815C140.487 94.54 140.327 94.2506 140.159 93.9413C139.833 93.3435 139.867 92.6137 140.249 92.0495C140.63 91.4854 141.295 91.1813 141.971 91.2611C149.616 92.1641 154.364 98.9852 152.187 106.137L152.183 106.149C149.932 113.365 144.587 117.405 138.063 119.561L138.055 119.564C121.298 125.023 103.675 119.104 93.3028 104.847C86.3825 114.041 77.2869 119.915 65.6475 121.254L65.6447 121.254C55.7624 122.376 45.7368 121.193 38.0407 112.88C34.3512 108.906 32.9023 104.279 34.027 100.065C35.1533 95.8452 38.7244 92.5504 44.0011 90.9617C44.659 90.7636 45.3723 90.9527 45.8457 91.4507C46.3191 91.9486 46.4719 92.6706 46.2408 93.3176C46.1698 93.5164 46.1319 93.6491 46.085 93.8132C46.055 93.9184 46.0213 94.0364 45.9728 94.193C45.8732 94.5149 45.7132 94.9783 45.3807 95.4324ZM93.108 88.3712C93.1079 88.3712 93.1104 88.3711 93.1158 88.371C93.1107 88.3712 93.108 88.3712 93.108 88.3712Z" fill="#2E3192"/>
</svg>
