<svg width="187" height="180" viewBox="0 0 187 180" fill="none" xmlns="http://www.w3.org/2000/svg">
<path fill-rule="evenodd" clip-rule="evenodd" d="M93.5265 59.8266C73.8748 59.8266 66.0582 73.2665 66.0582 79.5954C66.0582 85.3041 66.2545 89.8197 66.7143 92.8766C66.9203 94.2462 67.1643 95.2134 67.4131 95.834C67.6406 95.4416 67.8917 94.8799 68.1573 94.1325C68.8194 92.2698 69.4028 89.7603 70.0242 87.0873L70.0658 86.9084C70.6855 84.2435 71.3469 81.4205 72.1476 79.2653C72.5454 78.1943 73.0242 77.1553 73.632 76.3536C74.2264 75.5696 75.1887 74.7052 76.5669 74.7052C77.672 74.7052 78.8095 74.9493 79.9225 75.2477C80.525 75.4093 81.2222 75.617 81.9417 75.8314C82.4896 75.9947 83.0504 76.1618 83.5922 76.3153C86.2362 77.0645 89.4392 77.8005 93.5252 77.8265C100.37 77.7747 104.036 77.389 106.393 77.0282C107.05 76.9277 107.646 76.8195 108.21 76.717C109.542 76.4754 110.696 76.2659 112.047 76.2659C113.501 76.2659 114.313 77.4237 114.667 78.0373C115.096 78.78 115.432 79.7333 115.715 80.709C116.203 82.3916 116.64 84.5405 117.071 86.6604C117.144 87.0203 117.217 87.3794 117.29 87.7352C117.808 90.2591 118.331 92.6351 118.954 94.3704C119.193 95.0332 119.42 95.5273 119.625 95.8718C119.879 95.2529 120.128 94.2743 120.339 92.8766C120.798 89.8197 120.995 85.3041 120.995 79.5954C120.995 73.2665 113.178 59.8266 93.5265 59.8266ZM119.315 96.4398C119.315 96.4384 119.323 96.4285 119.34 96.4145C119.324 96.4342 119.315 96.4412 119.315 96.4398ZM119.983 96.3476C119.991 96.3524 119.995 96.3557 119.995 96.3561C119.995 96.3565 119.991 96.3541 119.983 96.3476ZM67.015 96.3688C67.0149 96.3683 67.0197 96.3643 67.0293 96.3584C67.0198 96.3664 67.015 96.3694 67.015 96.3688ZM67.7131 96.4145C67.73 96.4285 67.738 96.4383 67.7377 96.4398C67.7375 96.4412 67.7291 96.4342 67.7131 96.4145ZM62.4166 79.5954C62.4166 71.0456 72.0799 56.185 93.5265 56.185C114.973 56.185 124.636 71.0456 124.636 79.5954C124.636 85.3318 124.442 90.0763 123.94 93.4182C123.691 95.0705 123.348 96.521 122.84 97.6046C122.372 98.6011 121.436 99.9364 119.746 99.9364C118.407 99.9364 117.476 99.1045 116.908 98.3522C116.331 97.5877 115.887 96.604 115.527 95.6018C114.801 93.5817 114.232 90.9505 113.723 88.4672C113.646 88.0936 113.571 87.7233 113.496 87.3578C113.062 85.2227 112.661 83.2494 112.218 81.7234C111.971 80.8716 111.743 80.2789 111.547 79.9186C110.778 79.9539 110.139 80.0711 109.215 80.2405C108.615 80.3504 107.896 80.4822 106.944 80.6279C104.374 81.0212 100.526 81.4156 93.5402 81.4682C93.5319 81.4682 93.5237 81.4682 93.5155 81.4682C88.9715 81.4408 85.4152 80.6169 82.5995 79.819C81.9285 79.6289 81.3455 79.4545 80.8068 79.2933C80.159 79.0995 79.5752 78.9249 78.9794 78.7651C78.02 78.5079 77.2976 78.3692 76.7111 78.3493C76.6715 78.3868 76.6123 78.4503 76.5339 78.5538C76.2465 78.9328 75.9153 79.5804 75.5612 80.5335C74.8581 82.4263 74.2482 85.0007 73.6128 87.7332C73.5892 87.8349 73.5655 87.9368 73.5418 88.0388C72.9454 90.6054 72.3215 93.2901 71.5887 95.352C71.2102 96.4169 70.7576 97.4504 70.1853 98.2488C69.6381 99.0121 68.7017 99.9364 67.3068 99.9364C65.6165 99.9364 64.6806 98.6011 64.2131 97.6046C63.7047 96.521 63.3617 95.0705 63.1132 93.4182C62.6105 90.0763 62.4166 85.3318 62.4166 79.5954ZM76.7707 78.3015C76.7707 78.302 76.7663 78.3052 76.7575 78.3097C76.7663 78.3033 76.7707 78.3011 76.7707 78.3015ZM111.375 79.6557C111.375 79.6539 111.386 79.6641 111.407 79.6917C111.385 79.6714 111.375 79.6576 111.375 79.6557Z" fill="#2E3192"/>
<path fill-rule="evenodd" clip-rule="evenodd" d="M88.7404 141.191C88.7404 140.185 89.5556 139.37 90.5612 139.37C90.7691 139.37 90.9816 139.389 91.1095 139.4C91.1209 139.401 91.1316 139.402 91.1416 139.403C91.2972 139.416 91.3792 139.422 91.4456 139.422C91.5211 139.422 91.5965 139.427 91.6714 139.436C91.9554 139.471 92.256 139.474 92.7461 139.474H94.3068C94.4787 139.474 94.6485 139.464 94.8665 139.451C94.8774 139.451 94.8885 139.45 94.8998 139.449C95.0968 139.437 95.3486 139.422 95.6074 139.422C95.6411 139.422 95.6954 139.418 95.8723 139.403L95.8794 139.402C96.0233 139.39 96.25 139.37 96.4918 139.37C97.4974 139.37 98.3126 140.185 98.3126 141.191C98.3126 142.196 97.4974 143.012 96.4918 143.012C96.4254 143.012 96.3435 143.017 96.1878 143.031C96.1779 143.032 96.1672 143.032 96.1558 143.033C96.0278 143.045 95.8154 143.064 95.6074 143.064C95.4649 143.064 95.3145 143.072 95.0868 143.086L95.0855 143.086C94.8745 143.099 94.6026 143.116 94.3068 143.116H92.7461C92.7313 143.116 92.7164 143.116 92.7014 143.116C92.294 143.116 91.8191 143.116 91.3271 143.062C91.131 143.057 90.9532 143.042 90.8331 143.031L90.8261 143.031C90.6492 143.015 90.5948 143.012 90.5612 143.012C89.5556 143.012 88.7404 142.196 88.7404 141.191Z" fill="#2E3192"/>
<path fill-rule="evenodd" clip-rule="evenodd" d="M64.8223 99.6442C64.6445 100.227 64.4976 101.198 64.4976 102.746C64.4976 106.634 65.4182 109.766 66.5819 111.453C67.1639 112.298 67.6717 112.593 67.9734 112.666C68.1809 112.715 68.5598 112.73 69.1851 112.189C69.724 111.723 70.4853 111.614 71.1334 111.911C71.7814 112.207 72.197 112.854 72.197 113.566C72.197 120.42 74.0037 124.253 75.9519 126.897C76.5484 127.706 76.3757 128.846 75.5661 129.443C74.7565 130.039 73.6167 129.867 73.0202 129.057C70.9038 126.185 69.0767 122.314 68.6495 116.305C68.151 116.36 67.6405 116.331 67.1247 116.207C65.6219 115.847 64.4455 114.77 63.5838 113.521C61.8602 111.021 60.856 107.077 60.856 102.746C60.856 101.016 61.0147 99.6456 61.3392 98.5817C61.6641 97.5167 62.209 96.592 63.0973 96.0267C64.0065 95.4481 64.9595 95.4454 65.6698 95.5793C66.3508 95.7077 66.953 95.988 67.3164 96.1629C67.3365 96.1726 67.3564 96.1827 67.3761 96.193C67.481 96.2361 67.5768 96.2779 67.6513 96.3105C68.5433 96.4282 69.2317 97.1915 69.2317 98.1156C69.2317 99.1212 68.4165 99.9364 67.4109 99.9364H67.2548C67.0591 99.9364 66.8647 99.9049 66.679 99.843C66.5144 99.7881 66.3528 99.7174 66.2598 99.6767L66.2519 99.6732C66.2377 99.667 66.2239 99.661 66.2106 99.6551C66.1828 99.643 66.1568 99.6316 66.1316 99.6206C65.9217 99.5675 65.7226 99.4772 65.5439 99.3538C65.3214 99.2532 65.1541 99.1916 65.0206 99.163C64.9714 99.2448 64.899 99.3928 64.8223 99.6442Z" fill="#2E3192"/>
<path fill-rule="evenodd" clip-rule="evenodd" d="M125.714 98.5817C126.038 99.6456 126.197 101.016 126.197 102.746C126.197 107.077 125.193 111.021 123.469 113.521C122.607 114.77 121.431 115.847 119.928 116.207C119.412 116.331 118.902 116.36 118.403 116.305C117.976 122.314 116.149 126.185 114.033 129.057C113.436 129.867 112.296 130.039 111.487 129.443C110.677 128.846 110.505 127.706 111.101 126.897C113.049 124.253 114.856 120.42 114.856 113.566C114.856 112.854 115.272 112.207 115.92 111.911C116.568 111.614 117.329 111.723 117.868 112.189C118.493 112.73 118.872 112.715 119.08 112.666C119.381 112.593 119.889 112.298 120.471 111.453C121.635 109.766 122.555 106.634 122.555 102.746C122.555 101.198 122.408 100.227 122.231 99.6442C122.154 99.3928 122.082 99.2448 122.032 99.163C121.899 99.1916 121.732 99.2532 121.509 99.3539C121.409 99.4225 121.303 99.4813 121.192 99.5291C121.129 99.5562 121.065 99.5851 120.994 99.6188C120.98 99.625 120.965 99.6321 120.949 99.6397C120.891 99.667 120.818 99.7016 120.753 99.7305C120.67 99.7679 120.543 99.8235 120.398 99.8709C120.267 99.9138 120.011 99.9884 119.694 99.9884C118.688 99.9884 117.873 99.1732 117.873 98.1676C117.873 97.2954 118.487 96.5665 119.305 96.3884C119.315 96.3841 119.325 96.3794 119.336 96.3742L119.448 96.3214C119.468 96.3121 119.489 96.3022 119.511 96.2919C119.583 96.2437 119.658 96.2006 119.737 96.1629C120.1 95.988 120.702 95.7077 121.383 95.5793C122.093 95.4454 123.046 95.4481 123.956 96.0267C124.844 96.592 125.389 97.5167 125.714 98.5817ZM119.236 96.5189C119.236 96.519 119.236 96.519 119.236 96.5189V96.5189ZM119.232 96.5229C119.233 96.5221 119.232 96.5231 119.232 96.5229V96.5229ZM121.793 99.1121C121.793 99.1117 121.793 99.1115 121.793 99.1121V99.1121ZM121.798 99.1072C121.798 99.1073 121.798 99.1074 121.797 99.1076L121.795 99.11L121.794 99.1109L121.793 99.1121M121.798 99.1072L121.798 99.1068L121.799 99.1062L121.799 99.1057L121.8 99.1052L121.8 99.1048L121.801 99.1044L121.801 99.1039L121.801 99.1035C121.802 99.1033 121.802 99.103 121.801 99.1035L121.802 99.103L121.802 99.1025L121.803 99.1021C121.803 99.102 121.803 99.1017 121.803 99.1014C121.803 99.1022 121.804 99.1007 121.803 99.1014L121.804 99.101L121.804 99.1006L121.805 99.1002" fill="#2E3192"/>
<path fill-rule="evenodd" clip-rule="evenodd" d="M89.4341 117.966C90.3948 118.263 90.9329 119.282 90.636 120.243L84.9734 138.563C85.1909 138.619 85.4326 138.678 85.699 138.736C87.3347 139.097 89.9082 139.474 93.5264 139.474C97.1177 139.474 99.6918 139.097 101.336 138.736C101.609 138.676 101.856 138.617 102.078 138.559L96.4169 120.243C96.1199 119.282 96.658 118.263 97.6188 117.966C98.5796 117.669 99.5991 118.207 99.8961 119.168L106.087 139.196C106.356 140.068 105.939 141.005 105.11 141.387L104.347 139.734C105.11 141.387 105.11 141.388 105.109 141.388L105.107 141.389L105.104 141.39L105.097 141.393L105.079 141.402C105.065 141.408 105.047 141.415 105.027 141.424C104.985 141.442 104.931 141.465 104.862 141.492C104.725 141.547 104.533 141.619 104.285 141.703C103.789 141.87 103.07 142.083 102.117 142.293C100.211 142.712 97.3745 143.116 93.5264 143.116C89.6534 143.116 86.8165 142.712 84.9146 142.293C83.964 142.083 83.2485 141.869 82.7554 141.701C82.5089 141.617 82.3181 141.545 82.1815 141.489C82.1132 141.462 82.0584 141.439 82.0171 141.421C81.9964 141.412 81.979 141.404 81.965 141.398L81.9464 141.389L81.939 141.386L81.9357 141.384L81.9342 141.383C81.9335 141.383 81.9328 141.383 82.7056 139.734L81.9328 141.383C81.1103 140.997 80.6977 140.064 80.966 139.196L87.1568 119.168C87.4537 118.207 88.4733 117.669 89.4341 117.966ZM103.596 138.075C103.596 138.075 103.596 138.075 103.596 138.076L103.596 138.075Z" fill="#2E3192"/>
<path fill-rule="evenodd" clip-rule="evenodd" d="M74.2493 132.814C74.9112 133.198 75.7728 133.676 76.7347 134.16C78.9926 135.296 81.5059 136.302 83.282 136.408C84.2859 136.468 85.0512 137.33 84.9914 138.334C84.9317 139.337 84.0695 140.103 83.0657 140.043C80.4719 139.889 77.3667 138.554 75.0986 137.414C73.9228 136.822 72.892 136.241 72.1553 135.808C71.7863 135.591 71.4892 135.41 71.2827 135.282C71.1793 135.218 71.0985 135.168 71.0425 135.132C71.0145 135.115 70.9927 135.101 70.9774 135.091L70.9593 135.079L70.9515 135.075C70.9513 135.074 70.9511 135.074 71.9369 133.543C70.2631 132.826 70.2633 132.826 70.2634 132.826L70.274 132.801L70.304 132.732C70.3301 132.671 70.3687 132.582 70.4191 132.467C70.5199 132.237 70.668 131.901 70.8592 131.474C71.2413 130.62 71.7957 129.403 72.4868 127.944C73.8676 125.028 75.8013 121.13 78.0049 117.224C80.2001 113.332 82.7006 109.364 85.2223 106.346C86.4819 104.839 87.7943 103.511 89.1249 102.545C90.4344 101.595 91.9329 100.873 93.5265 100.873C95.1201 100.873 96.6185 101.595 97.928 102.545C99.2587 103.511 100.571 104.839 101.831 106.346C104.352 109.364 106.853 113.332 109.048 117.224C111.252 121.13 113.185 125.028 114.566 127.944C115.257 129.403 115.812 130.62 116.194 131.474C116.385 131.901 116.533 132.237 116.634 132.467C116.684 132.582 116.723 132.671 116.749 132.732L116.779 132.801L116.789 132.826C116.79 132.826 116.79 132.826 115.116 133.543C116.094 135.079 116.093 135.08 116.093 135.08L116.093 135.08L116.086 135.085L116.067 135.096C116.052 135.106 116.03 135.119 116.002 135.137C115.947 135.172 115.866 135.222 115.763 135.285C115.556 135.411 115.26 135.59 114.891 135.805C114.155 136.233 113.125 136.809 111.951 137.396C109.682 138.53 106.587 139.857 104.009 140.042C103.006 140.113 102.135 139.358 102.063 138.355C101.991 137.352 102.746 136.481 103.749 136.409C105.541 136.281 108.065 135.267 110.322 134.139C111.28 133.66 112.139 133.186 112.801 132.807C112.431 131.983 111.912 130.849 111.275 129.502C109.916 126.634 108.023 122.819 105.876 119.013C103.721 115.192 101.348 111.448 99.0361 108.681C97.879 107.297 96.7849 106.215 95.7898 105.493C94.7734 104.756 94.0268 104.514 93.5265 104.514C93.0261 104.514 92.2795 104.756 91.2632 105.493C90.268 106.215 89.1739 107.297 88.0168 108.681C85.7053 111.448 83.3318 115.192 81.1767 119.013C79.0298 122.819 77.1365 126.634 75.778 129.502C75.1387 130.852 74.6193 131.99 74.2493 132.814ZM115.116 133.543L116.094 135.079C116.846 134.6 117.141 133.647 116.79 132.826L115.116 133.543ZM71.9369 133.543L70.9511 135.074C70.204 134.593 69.9133 133.643 70.2631 132.826L71.9369 133.543Z" fill="#2E3192"/>
<path fill-rule="evenodd" clip-rule="evenodd" d="M99.7826 98.5141C100.396 97.717 101.539 97.5679 102.336 98.1811C104.387 99.7585 107.325 99.7585 109.376 98.1811C110.173 97.5679 111.316 97.717 111.929 98.5141C112.542 99.3112 112.393 100.454 111.596 101.067C108.236 103.652 103.475 103.652 100.116 101.067C99.3186 100.454 99.1695 99.3112 99.7826 98.5141Z" fill="#2E3192"/>
<path fill-rule="evenodd" clip-rule="evenodd" d="M75.1237 98.5141C75.7368 97.717 76.88 97.5679 77.677 98.1811C79.7278 99.7585 82.6661 99.7585 84.7168 98.1811C85.5139 97.5679 86.6571 97.717 87.2702 98.5141C87.8833 99.3112 87.7342 100.454 86.9372 101.067C83.5775 103.652 78.8164 103.652 75.4567 101.067C74.6596 100.454 74.5105 99.3112 75.1237 98.5141Z" fill="#2E3192"/>
<path fill-rule="evenodd" clip-rule="evenodd" d="M115.337 136.886C116.048 136.175 117.201 136.175 117.912 136.886L124.103 143.077C124.814 143.788 124.814 144.941 124.103 145.652C123.392 146.363 122.239 146.363 121.528 145.652L115.337 139.461C114.626 138.75 114.626 137.597 115.337 136.886Z" fill="#2E3192"/>
<path fill-rule="evenodd" clip-rule="evenodd" d="M71.6582 136.88C72.3723 137.589 72.3772 138.741 71.6691 139.455L65.5304 145.646C64.8223 146.36 63.6694 146.365 62.9554 145.657C62.2413 144.949 62.2364 143.796 62.9445 143.082L69.0832 136.891C69.7913 136.177 70.9442 136.172 71.6582 136.88Z" fill="#2E3192"/>
<path fill-rule="evenodd" clip-rule="evenodd" d="M119.737 127.959C120.293 127.121 121.423 126.892 122.261 127.448L131.521 133.586C132.359 134.142 132.588 135.272 132.033 136.11C131.477 136.948 130.347 137.177 129.509 136.622L120.249 130.483C119.411 129.927 119.182 128.797 119.737 127.959Z" fill="#2E3192"/>
<path fill-rule="evenodd" clip-rule="evenodd" d="M67.2637 127.959C67.8193 128.797 67.5903 129.927 66.7521 130.483L57.492 136.622C56.6538 137.177 55.5239 136.948 54.9683 136.11C54.4127 135.272 54.6417 134.142 55.4799 133.586L64.74 127.448C65.5781 126.892 66.708 127.121 67.2637 127.959Z" fill="#2E3192"/>
<path fill-rule="evenodd" clip-rule="evenodd" d="M121.012 119.453C121.152 118.457 122.072 117.763 123.068 117.902L133.837 119.411C134.833 119.55 135.527 120.471 135.387 121.467C135.248 122.462 134.327 123.157 133.332 123.017L122.563 121.508C121.567 121.369 120.873 120.448 121.012 119.453Z" fill="#2E3192"/>
<path fill-rule="evenodd" clip-rule="evenodd" d="M66.0408 119.454C66.1796 120.45 65.4848 121.37 64.4888 121.509L53.668 123.017C52.6721 123.156 51.7521 122.461 51.6132 121.465C51.4744 120.469 52.1692 119.549 53.1652 119.41L63.986 117.902C64.982 117.763 65.9019 118.458 66.0408 119.454Z" fill="#2E3192"/>
</svg>
