<svg width="187" height="180" viewBox="0 0 187 180" fill="none" xmlns="http://www.w3.org/2000/svg">
<g clip-path="url(#clip0)">
<path d="M73.0333 147.746C71.9855 147.746 71.1032 146.866 71.1032 145.822V132.628C71.1032 130.154 70.0002 127.845 68.0701 126.251C64.7612 123.502 57.0406 114.706 57.0406 92.4971C57.0406 69.793 70.3311 55.6647 91.7282 55.6647C109.872 55.6647 122.5 63.0312 122.5 69.6281C122.5 78.3139 114.724 80.183 109.044 81.5024C106.783 82.0521 104.522 82.6018 103.53 83.4264C100.276 86.1751 99.173 90.2432 98.2907 93.8714C97.298 97.6097 96.3054 101.458 92.3899 101.458C88.8605 101.458 87.1509 99.3688 85.9377 97.8845C84.8899 96.6201 84.4487 96.1803 83.6215 96.1803C80.423 96.1803 80.2576 101.898 80.2576 103.052C80.2576 107.285 82.1877 111.683 85.3862 111.683C86.434 111.683 87.3164 112.563 87.3164 113.607C87.3164 114.652 86.434 115.531 85.3862 115.531C79.5407 115.531 76.3973 109.099 76.3973 103.052C76.3973 96.4552 79.1546 92.3322 83.6215 92.3322C86.434 92.3322 87.8679 94.1463 88.9708 95.4657C90.1289 96.895 90.7907 97.6097 92.4451 97.6097C93.2723 97.6097 93.8237 95.7406 94.5958 92.8819C95.5885 89.1437 96.912 83.9762 101.103 80.4579C102.758 79.0835 105.405 78.4238 108.162 77.7642C114.504 76.2249 118.64 74.8506 118.64 69.6281C118.695 66.6045 109.486 59.5129 91.7282 59.5129C72.4267 59.5129 60.9009 71.827 60.9009 92.4971C60.9009 97.8296 61.6179 115.861 70.5517 123.282C73.3642 125.591 74.9634 129 74.9634 132.628V145.822C74.9634 146.866 74.1362 147.746 73.0333 147.746Z" fill="#2E3192"/>
<path d="M104.522 147.141C103.475 147.141 102.592 146.261 102.592 145.217V141.754C102.592 139.335 103.254 137.466 104.577 136.201C106.728 134.112 110.037 134.277 112.96 134.387C113.677 134.442 114.338 134.442 114.945 134.442C118.916 134.442 119.081 133.562 119.191 132.958C119.357 132.023 118.971 129.275 118.64 127.735C118.53 127.295 118.585 126.856 118.805 126.471C119.963 124.162 121.232 121.248 121.342 120.479C121.342 119.984 121.232 119.544 121.066 118.939C120.791 117.785 120.35 116.246 120.35 113.497C120.35 112.508 121.122 111.683 122.114 111.573C124.375 111.408 126.912 110.638 127.353 110.034C127.188 108.824 124.651 104.756 123.162 102.337C120.956 98.8191 119.688 96.7301 119.467 95.4107C119.247 93.8165 119.633 92.6071 119.963 91.6725C120.239 90.9029 120.405 90.2982 120.35 89.3636C120.294 88.6489 119.853 87.3296 119.357 85.9003C118.364 83.0416 117.041 79.0835 117.041 74.9055C117.041 73.861 117.923 72.9814 118.971 72.9814C120.019 72.9814 120.901 73.861 120.901 74.9055C120.901 78.4238 122.059 81.8872 122.997 84.6359C123.603 86.395 124.1 87.8243 124.155 89.0338C124.32 90.7379 123.879 91.9474 123.603 92.8819C123.327 93.6516 123.162 94.1463 123.272 94.861C123.438 95.5756 125.147 98.3243 126.416 100.303C129.394 105.031 131.213 108.11 131.213 110.089C131.213 113.497 127.022 114.706 124.265 115.201C124.375 116.411 124.596 117.235 124.761 117.95C124.982 118.72 125.147 119.544 125.147 120.534C125.147 121.578 124.265 123.942 122.5 127.57C122.776 129 123.217 131.968 122.941 133.617C122.169 137.74 118.254 138.29 114.89 138.29C114.173 138.29 113.456 138.235 112.739 138.235C110.478 138.125 108.162 138.07 107.169 139.005C106.673 139.5 106.397 140.434 106.397 141.754V145.217C106.452 146.261 105.625 147.141 104.522 147.141Z" fill="#2E3192"/>
<path d="M130.607 128.23C131.764 128.23 132.702 127.295 132.702 126.141C132.702 124.987 131.764 124.052 130.607 124.052C129.449 124.052 128.511 124.987 128.511 126.141C128.511 127.295 129.449 128.23 130.607 128.23Z" fill="#2E3192"/>
<path d="M137.776 128.23C138.933 128.23 139.872 127.295 139.872 126.141C139.872 124.987 138.933 124.052 137.776 124.052C136.619 124.052 135.68 124.987 135.68 126.141C135.68 127.295 136.619 128.23 137.776 128.23Z" fill="#2E3192"/>
<path d="M144.945 128.23C146.102 128.23 147.041 127.295 147.041 126.141C147.041 124.987 146.102 124.052 144.945 124.052C143.788 124.052 142.849 124.987 142.849 126.141C142.849 127.295 143.788 128.23 144.945 128.23Z" fill="#2E3192"/>
<path d="M122.224 125.097H113.566C112.519 125.097 111.636 124.217 111.636 123.172C111.636 122.128 112.519 121.248 113.566 121.248H122.224C123.272 121.248 124.155 122.128 124.155 123.172C124.155 124.217 123.327 125.097 122.224 125.097Z" fill="#2E3192"/>
</g>
<defs>
<clipPath id="clip0">
<rect width="90" height="92.0809" fill="white" transform="translate(57.0406 55.6647)"/>
</clipPath>
</defs>
</svg>
